<?xml version="1.0" encoding="UTF-8" standalone="no"?> <!-- Created with Vectornator for iOS (http://vectornator.io/) --><!DOCTYPE svg PUBLIC "-//W3C//DTD SVG 1.1//EN" "http://www.w3.org/Graphics/SVG/1.1/DTD/svg11.dtd">
<svg style="fill-rule:evenodd;clip-rule:evenodd;stroke-linecap:round;stroke-linejoin:round;" xmlns:vectornator="http://vectornator.io" xmlns:xlink="http://www.w3.org/1999/xlink" xmlns="http://www.w3.org/2000/svg" xml:space="preserve" version="1.1" viewBox="0 0 150 150">
<metadata>
<vectornator:setting key="DynamicGuides" value="1"/>
<vectornator:setting key="Units" value="Pixels"/>
<vectornator:setting key="GuidesVisible" value="1"/>
<vectornator:setting key="GridSpacing" value="36"/>
<vectornator:setting key="SnapToGuides" value="1"/>
<vectornator:setting key="RulersVisible" value="1"/>
</metadata>
<defs>
<linearGradient y1="0" id="LinearGradient" x1="0" y2="0" x2="1" gradientUnits="userSpaceOnUse" gradientTransform="matrix(327.523 0 0 327.523 42.8334 74.9997)">
<stop stop-color="#2bb673" offset="0"/>
<stop stop-color="#27aae1" offset="1"/>
</linearGradient>
</defs>
<g id="g1695" vectornator:layerName="g1695">
<g opacity="0">
<path d="M339.513+1041.54L341.013+1041.54L341.013+1053.79L339.513+1053.79L339.513+1041.54Z" opacity="1" fill="#ffffff"/>
<path d="M346.804+1052.82C347.799+1052.82+348.481+1052.44+348.85+1051.69C349.22+1050.94+349.404+1050.1+349.404+1049.18C349.404+1048.34+349.271+1047.67+349.004+1047.14C348.582+1046.32+347.854+1045.91+346.821+1045.91C345.904+1045.91+345.238+1046.26+344.821+1046.96C344.404+1047.66+344.196+1048.5+344.196+1049.49C344.196+1050.44+344.404+1051.24+344.821+1051.87C345.238+1052.5+345.899+1052.82+346.804+1052.82ZM346.863+1044.6C348.013+1044.6+348.985+1044.99+349.779+1045.75C350.574+1046.52+350.971+1047.65+350.971+1049.14C350.971+1050.57+350.621+1051.76+349.921+1052.7C349.221+1053.64+348.135+1054.11+346.663+1054.11C345.435+1054.11+344.46+1053.7+343.738+1052.86C343.015+1052.03+342.654+1050.92+342.654+1049.52C342.654+1048.02+343.035+1046.82+343.796+1045.94C344.557+1045.05+345.579+1044.6+346.863+1044.6Z" opacity="1" fill="#ffffff"/>
<path d="M355.904+1044.7C356.604+1044.7+357.215+1044.87+357.738+1045.22C358.021+1045.41+358.31+1045.7+358.604+1046.07L358.604+1044.94L359.988+1044.94L359.988+1053.06C359.988+1054.19+359.821+1055.09+359.488+1055.74C358.865+1056.95+357.69+1057.56+355.963+1057.56C355.002+1057.56+354.193+1057.35+353.538+1056.91C352.882+1056.48+352.515+1055.81+352.438+1054.89L353.963+1054.89C354.035+1055.29+354.179+1055.6+354.396+1055.82C354.735+1056.15+355.268+1056.32+355.996+1056.32C357.146+1056.32+357.899+1055.91+358.254+1055.1C358.465+1054.62+358.563+1053.77+358.546+1052.54C358.246+1053+357.885+1053.34+357.463+1053.56C357.04+1053.78+356.482+1053.89+355.788+1053.89C354.821+1053.89+353.975+1053.55+353.25+1052.86C352.525+1052.18+352.163+1051.04+352.163+1049.46C352.163+1047.97+352.528+1046.8+353.259+1045.96C353.989+1045.12+354.871+1044.7+355.904+1044.7ZM358.604+1049.29C358.604+1048.18+358.377+1047.36+357.921+1046.83C357.465+1046.29+356.885+1046.03+356.179+1046.03C355.124+1046.03+354.402+1046.52+354.013+1047.51C353.807+1048.04+353.704+1048.73+353.704+1049.59C353.704+1050.59+353.909+1051.36+354.317+1051.88C354.725+1052.41+355.274+1052.67+355.963+1052.67C357.04+1052.67+357.799+1052.18+358.238+1051.21C358.482+1050.66+358.604+1050.02+358.604+1049.29Z" opacity="1" fill="#ffffff"/>
<path d="M365.788+1052.82C366.782+1052.82+367.464+1052.44+367.834+1051.69C368.203+1050.94+368.388+1050.1+368.388+1049.18C368.388+1048.34+368.254+1047.67+367.988+1047.14C367.565+1046.32+366.838+1045.91+365.804+1045.91C364.888+1045.91+364.221+1046.26+363.804+1046.96C363.388+1047.66+363.179+1048.5+363.179+1049.49C363.179+1050.44+363.388+1051.24+363.804+1051.87C364.221+1052.5+364.882+1052.82+365.788+1052.82ZM365.846+1044.6C366.996+1044.6+367.968+1044.99+368.763+1045.75C369.557+1046.52+369.954+1047.65+369.954+1049.14C369.954+1050.57+369.604+1051.76+368.904+1052.7C368.204+1053.64+367.118+1054.11+365.646+1054.11C364.418+1054.11+363.443+1053.7+362.721+1052.86C361.999+1052.03+361.638+1050.92+361.638+1049.52C361.638+1048.02+362.018+1046.82+362.779+1045.94C363.54+1045.05+364.563+1044.6+365.846+1044.6Z" opacity="1" fill="#ffffff"/>
<path d="M376.479+1044.86L377.963+1044.86L377.963+1046.13C378.318+1045.69+378.64+1045.37+378.929+1045.17C379.424+1044.83+379.985+1044.66+380.613+1044.66C381.324+1044.66+381.896+1044.84+382.329+1045.19C382.574+1045.39+382.796+1045.68+382.996+1046.07C383.329+1045.59+383.721+1045.24+384.171+1045.01C384.621+1044.78+385.127+1044.66+385.688+1044.66C386.888+1044.66+387.704+1045.09+388.138+1045.96C388.371+1046.43+388.488+1047.05+388.488+1047.84L388.488+1053.79L386.929+1053.79L386.929+1047.59C386.929+1046.99+386.781+1046.58+386.484+1046.36C386.186+1046.14+385.824+1046.03+385.396+1046.03C384.807+1046.03+384.3+1046.22+383.875+1046.62C383.45+1047.01+383.238+1047.67+383.238+1048.59L383.238+1053.79L381.713+1053.79L381.713+1047.96C381.713+1047.35+381.64+1046.91+381.496+1046.64C381.268+1046.22+380.843+1046.01+380.221+1046.01C379.654+1046.01+379.139+1046.23+378.675+1046.67C378.211+1047.11+377.979+1047.9+377.979+1049.05L377.979+1053.79L376.479+1053.79L376.479+1044.86Z" opacity="1" fill="#ffffff"/>
<path d="M391.846+1051.41C391.846+1051.84+392.004+1052.19+392.321+1052.44C392.638+1052.69+393.013+1052.81+393.446+1052.81C393.974+1052.81+394.485+1052.69+394.979+1052.44C395.813+1052.04+396.229+1051.37+396.229+1050.45L396.229+1049.24C396.046+1049.36+395.81+1049.46+395.521+1049.54C395.232+1049.61+394.949+1049.67+394.671+1049.7L393.763+1049.82C393.218+1049.89+392.81+1050+392.538+1050.16C392.077+1050.42+391.846+1050.84+391.846+1051.41ZM395.479+1048.38C395.824+1048.33+396.054+1048.19+396.171+1047.94C396.238+1047.81+396.271+1047.62+396.271+1047.37C396.271+1046.86+396.089+1046.49+395.725+1046.26C395.361+1046.03+394.84+1045.91+394.163+1045.91C393.379+1045.91+392.824+1046.12+392.496+1046.54C392.313+1046.78+392.193+1047.12+392.138+1047.59L390.738+1047.59C390.765+1046.49+391.122+1045.72+391.809+1045.29C392.495+1044.86+393.29+1044.64+394.196+1044.64C395.246+1044.64+396.099+1044.84+396.754+1045.24C397.404+1045.64+397.729+1046.27+397.729+1047.11L397.729+1052.25C397.729+1052.41+397.761+1052.53+397.825+1052.63C397.889+1052.72+398.024+1052.77+398.229+1052.77C398.296+1052.77+398.371+1052.76+398.454+1052.76C398.538+1052.75+398.627+1052.74+398.721+1052.72L398.721+1053.83C398.488+1053.89+398.31+1053.94+398.188+1053.95C398.065+1053.97+397.899+1053.98+397.688+1053.98C397.171+1053.98+396.796+1053.79+396.563+1053.43C396.44+1053.23+396.354+1052.96+396.304+1052.6C395.999+1053+395.56+1053.35+394.988+1053.64C394.415+1053.94+393.785+1054.09+393.096+1054.09C392.268+1054.09+391.592+1053.83+391.067+1053.33C390.542+1052.83+390.279+1052.2+390.279+1051.44C390.279+1050.62+390.538+1049.97+391.054+1049.52C391.571+1049.06+392.249+1048.78+393.088+1048.68L395.479+1048.38Z" opacity="1" fill="#ffffff"/>
<path d="M400.188+1044.86L401.613+1044.86L401.613+1046.13C402.035+1045.6+402.482+1045.23+402.954+1045C403.427+1044.77+403.952+1044.66+404.529+1044.66C405.796+1044.66+406.652+1045.1+407.096+1045.99C407.34+1046.47+407.463+1047.16+407.463+1048.06L407.463+1053.79L405.938+1053.79L405.938+1048.16C405.938+1047.62+405.857+1047.18+405.696+1046.84C405.429+1046.29+404.946+1046.01+404.246+1046.01C403.89+1046.01+403.599+1046.05+403.371+1046.12C402.96+1046.24+402.599+1046.49+402.288+1046.85C402.038+1047.15+401.875+1047.45+401.8+1047.76C401.725+1048.08+401.688+1048.53+401.688+1049.11L401.688+1053.79L400.188+1053.79L400.188+1044.86Z" opacity="1" fill="#ffffff"/>
<path d="M411.179+1044.86L411.179+1050.79C411.179+1051.24+411.252+1051.61+411.396+1051.9C411.663+1052.44+412.16+1052.7+412.888+1052.7C413.932+1052.7+414.643+1052.24+415.021+1051.3C415.227+1050.8+415.329+1050.12+415.329+1049.24L415.329+1044.86L416.829+1044.86L416.829+1053.79L415.413+1053.79L415.429+1052.47C415.235+1052.81+414.993+1053.09+414.704+1053.33C414.132+1053.79+413.438+1054.03+412.621+1054.03C411.349+1054.03+410.482+1053.6+410.021+1052.75C409.771+1052.3+409.646+1051.69+409.646+1050.93L409.646+1044.86L411.179+1044.86Z" opacity="1" fill="#ffffff"/>
<path d="M420.321+1051.41C420.321+1051.84+420.479+1052.19+420.796+1052.44C421.113+1052.69+421.488+1052.81+421.921+1052.81C422.449+1052.81+422.96+1052.69+423.454+1052.44C424.288+1052.04+424.704+1051.37+424.704+1050.45L424.704+1049.24C424.521+1049.36+424.285+1049.46+423.996+1049.54C423.707+1049.61+423.424+1049.67+423.146+1049.7L422.238+1049.82C421.693+1049.89+421.285+1050+421.013+1050.16C420.552+1050.42+420.321+1050.84+420.321+1051.41ZM423.954+1048.38C424.299+1048.33+424.529+1048.19+424.646+1047.94C424.713+1047.81+424.746+1047.62+424.746+1047.37C424.746+1046.86+424.564+1046.49+424.2+1046.26C423.836+1046.03+423.316+1045.91+422.638+1045.91C421.854+1045.91+421.299+1046.12+420.971+1046.54C420.788+1046.78+420.668+1047.12+420.613+1047.59L419.213+1047.59C419.241+1046.49+419.597+1045.72+420.284+1045.29C420.97+1044.86+421.766+1044.64+422.671+1044.64C423.721+1044.64+424.574+1044.84+425.229+1045.24C425.879+1045.64+426.204+1046.27+426.204+1047.11L426.204+1052.25C426.204+1052.41+426.236+1052.53+426.3+1052.63C426.364+1052.72+426.499+1052.77+426.704+1052.77C426.771+1052.77+426.846+1052.76+426.929+1052.76C427.013+1052.75+427.102+1052.74+427.196+1052.72L427.196+1053.83C426.963+1053.89+426.785+1053.94+426.663+1053.95C426.541+1053.97+426.374+1053.98+426.163+1053.98C425.646+1053.98+425.271+1053.79+425.038+1053.43C424.916+1053.23+424.829+1052.96+424.779+1052.6C424.474+1053+424.035+1053.35+423.463+1053.64C422.891+1053.94+422.26+1054.09+421.571+1054.09C420.743+1054.09+420.067+1053.83+419.542+1053.33C419.017+1052.83+418.754+1052.2+418.754+1051.44C418.754+1050.62+419.013+1049.97+419.529+1049.52C420.046+1049.06+420.724+1048.78+421.563+1048.68L423.954+1048.38Z" opacity="1" fill="#ffffff"/>
<path d="M428.704+1041.54L430.204+1041.54L430.204+1053.79L428.704+1053.79L428.704+1041.54Z" opacity="1" fill="#ffffff"/>
</g>
<path d="M60.228+24.5633C46.756+38.0367+39.3373+55.9473+39.3373+74.9993L39.3373+74.9993C39.3373+94.0527+46.756+111.963+60.228+125.435L60.228+125.435C73.7+138.907+91.612+146.326+110.663+146.326L110.663+146.326L110.663+123.57C102.264+123.57+94.3573+121.425+87.4587+117.658L87.4587+117.658L66.624+123.222C64.9293+123.671+63.3733+122.142+63.7987+120.439L63.7987+120.439L68.9453+99.8447C64.5973+92.57+62.0947+84.0727+62.0947+74.9993L62.0947+74.9993C62.0947+48.218+83.8813+26.43+110.663+26.43L110.663+26.43L110.663+3.67401C91.612+3.67401+73.7+11.0927+60.228+24.5633" opacity="1" fill="url(#LinearGradient)"/>
</g>
</svg>
